<?xml version="1.0" encoding="UTF-8" standalone="no"?>
<!-- Created with Inkscape (http://www.inkscape.org/) -->

<svg
   version="1.1"
   id="svg1"
   width="544.1297"
   height="544.1297"
   viewBox="0 0 544.1297 544.1297"
   sodipodi:docname="_6df972b1-cf51-4e71-8358-6aa2525ac29c.jpg"
   xmlns:inkscape="http://www.inkscape.org/namespaces/inkscape"
   xmlns:sodipodi="http://sodipodi.sourceforge.net/DTD/sodipodi-0.dtd"
   xmlns="http://www.w3.org/2000/svg"
   xmlns:svg="http://www.w3.org/2000/svg">
  <defs
     id="defs1">
    <clipPath
       clipPathUnits="userSpaceOnUse"
       id="clipPath3">
      <path
         style="fill:#dc2121;stroke:#e77515;stroke-width:13.401;stroke-linecap:round;stroke-linejoin:round"
         id="path4"
         sodipodi:type="arc"
         sodipodi:cx="518.85107"
         sodipodi:cy="533.46655"
         sodipodi:rx="272.06485"
         sodipodi:ry="272.06485"
         sodipodi:start="0"
         sodipodi:end="6.2637899"
         sodipodi:open="true"
         sodipodi:arc-type="chord"
         d="M 790.91592,533.46655 A 272.06485,272.06485 0 0 1 520.17027,805.5282 272.06485,272.06485 0 0 1 246.79902,536.10492 272.06485,272.06485 0 0 1 514.89361,261.43049 272.06485,272.06485 0 0 1 790.86475,528.19008 Z" />
    </clipPath>
  </defs>
  <sodipodi:namedview
     id="namedview1"
     pagecolor="#ffffff"
     bordercolor="#000000"
     borderopacity="0.25"
     inkscape:showpageshadow="2"
     inkscape:pageopacity="0.0"
     inkscape:pagecheckerboard="0"
     inkscape:deskcolor="#d1d1d1" />
  <g
     inkscape:groupmode="layer"
     inkscape:label="Image"
     id="g1"
     transform="translate(-250.66174,-244.60776)">
    <path
       style="fill:#ffffff;fill-opacity:1"
       d="M -12.788582,508.34612 V -3.6538805 H 499.21142 1011.2114 V 508.34612 1020.3461 H 499.21142 -12.788582 Z M 525.27383,845.4702 c 29.28941,-9.98319 83.16906,-30.99394 101.43759,-39.5563 65.57863,-30.73634 112.05129,-72.81747 145.00998,-131.30695 18.98894,-33.69835 33.21459,-79.58404 37.57058,-121.1862 1.56866,-14.98152 0.64338,-59.11709 -1.51887,-72.45009 -2.51021,-15.47858 -6.51496,-32.4325 -9.59608,-40.62454 -1.87884,-4.99543 -3.20098,-11.16368 -3.95919,-18.47101 -3.09151,-29.79469 -10.38845,-51.89175 -32.64191,-98.8483 -5.26018,-11.09938 -10.25041,-21.88686 -11.08941,-23.97218 -2.37105,-5.89317 -2.54584,-3.73269 -0.35665,4.4083 2.03416,7.56453 8.10386,37.85285 10.09665,50.38319 0.61229,3.85 0.80877,9.64284 0.43662,12.87298 l -0.67664,5.87297 -5.42024,-12.87297 c -20.08953,-47.71233 -39.35082,-75.97835 -80.35032,-117.91444 -12.92748,-13.2228 -26.80363,-27.4764 -30.83588,-31.67467 -4.03225,-4.19826 -8.98225,-8.4297 -11,-9.4032 -7.99356,-3.85663 -20.29817,-2.64065 -31.16864,3.08019 l -4.5,2.36824 2.83886,1.09448 c 4.73368,1.82501 15.57225,9.22687 37.91548,25.89318 21.84022,16.2911 29.03044,23.00863 32.66582,30.51832 3.12807,6.46172 2.753,10.19176 -1.44717,14.39193 -3.23472,3.23472 -3.90106,3.48485 -8.04058,3.01826 -2.48246,-0.27981 -5.39278,-1.30442 -6.46738,-2.27692 -2.28118,-2.06444 -3.95154,-7.41521 -3.95945,-12.68355 -0.007,-4.68306 -4.66193,-10.31979 -9.66244,-11.7005 -4.16738,-1.15067 -5.7866,-0.65755 -10.12794,3.08441 -2.46625,2.12576 -4.31881,2.83129 -7.43427,2.83129 -8.57337,0 -15.6799,-5.61633 -25.10306,-19.83911 -2.42721,-3.66349 -9.603,-14.53589 -15.94621,-24.16089 -13.41001,-20.34797 -28.06974,-38.28683 -43.11874,-52.76371 -13.30987,-12.80386 -21.89541,-19.23982 -40.10505,-30.06388 -0.54566,-0.32435 5.25881,6.36667 12.89884,14.86893 7.64002,8.50226 17.59169,19.95866 22.11481,25.45866 9.74095,11.84476 26.87981,35.44063 29.59875,40.75 l 1.92038,3.75 h -3.43897 c -3.16611,0 -4.30799,-1.01162 -14.39178,-12.75 -16.04568,-18.67853 -29.37549,-30.96385 -41.33693,-38.09789 l -3.62703,-2.16323 -1.61118,6.25556 c -0.88615,3.44056 -1.86959,7.17483 -2.18543,8.29839 -0.47448,1.68792 0.79068,2.93185 7.28212,7.15994 9.37188,6.1042 19.96788,17.00145 23.19255,23.85191 4.61353,9.80095 3.69558,15.7034 -2.8648,18.4208 -6.36713,2.63735 -9.19092,0.4851 -39.65854,-30.22727 -15.41271,-15.53651 -31.59556,-32.02338 -35.96188,-36.63747 -10.10494,-10.67834 -15.30994,-14.11199 -21.38456,-14.107 -6.32106,0.005 -10.40551,2.73078 -12.56471,8.38455 -1.46983,3.84871 -1.56048,5.2728 -0.58276,9.15566 2.79273,11.09095 9.23561,17.01013 33.47662,30.75551 19.96702,11.3219 28.00738,17.83018 32.05022,25.94311 4.61215,9.25538 2.92451,17.47393 -4.75692,23.16548 -2.21974,1.64472 -4.25071,2.08361 -9.5,2.05296 -7.75444,-0.0453 -11.0699,-1.52011 -26.59682,-11.83116 -18.67395,-12.40092 -35.12711,-18.70824 -44.41057,-17.02482 -4.65983,0.845 -10.1215,3.57645 -12.57427,6.28856 -1.89881,2.09958 -1.8947,2.10641 1.26987,2.10641 8.3651,0 23.60367,9.205 27.0607,16.34626 2.55487,5.27766 2.57695,7.94995 0.1106,13.38308 -2.40161,5.2905 -7.04483,8.26191 -12.91815,8.26692 -5.486,0.005 -8.79564,-2.02631 -17.02178,-10.44554 -8.41521,-8.61274 -15.3041,-12.0547 -24.09625,-12.03943 -5.02785,0.009 -7.46256,0.56004 -10.75,2.43415 -2.3375,1.33256 -4.25,2.69696 -4.25,3.03199 0,0.33503 3.0375,2.06896 6.75,3.85318 14.49569,6.96659 21.26033,14.24876 22.04688,23.73356 0.38334,4.62262 0.0639,6.04787 -2.0828,9.2917 -5.63266,8.51152 -17.3549,9.6016 -25.06129,2.33051 -1.56597,-1.47751 -6.4897,-7.77894 -10.94163,-14.00318 -9.38314,-13.11857 -20.12793,-24.62998 -27.08602,-29.01858 -10.79927,-6.8113 -22.44379,-6.06005 -31.20204,2.01303 -5.00891,4.61705 -5.43942,5.82235 -2.07965,5.82235 4.57548,0 14.01187,4.052 22.33784,9.59191 4.64344,3.08964 8.21988,5.84025 7.94766,6.11247 -0.27222,0.27222 -2.2126,-0.0857 -4.31195,-0.79532 -4.77392,-1.61374 -21.79485,-1.83011 -23.32904,-0.29656 -0.81713,0.81679 -0.23248,1.28397 2.19954,1.75758 5.56619,1.08397 32.88933,15.26118 40.19792,20.85756 8.11789,6.21609 10.62309,10.2974 10.59262,17.25676 -0.0422,9.63281 -7.93682,20.52646 -14.8629,20.50901 -3.9487,-0.01 -6.87889,-2.42895 -18.16187,-14.99341 -13.24616,-14.75062 -32.86079,-34.4045 -30.43909,-30.5 12.17294,19.62638 18.62325,30.68367 24.9504,42.77064 4.14448,7.91735 7.53542,14.60501 7.53542,14.86147 0,0.25646 -1.59381,0.28022 -3.54181,0.0528 -3.17832,-0.37105 -4.56569,-1.71022 -13.51886,-13.0492 -5.48738,-6.94964 -14.58107,-18.4573 -20.20819,-25.57259 -13.06903,-16.52528 -20.95572,-24.99929 -24.71638,-26.55701 -6.98553,-2.8935 -14.83437,2.21384 -15.73923,10.24172 -0.92421,8.19963 2.46139,12.41505 25.1204,31.2775 18.21187,15.16042 24.43267,24.34696 25.37141,37.46708 0.52688,7.36372 -0.40206,10.06692 -4.34785,12.6523 -2.08347,1.36514 -3.14691,1.45393 -6.25634,0.52232 -4.91447,-1.47241 -8.09412,-4.96376 -13.23577,-14.53325 -2.32457,-4.32642 -5.80777,-9.44751 -7.74045,-11.38019 -7.32353,-7.32352 -21.54252,-10.95984 -31.12383,-7.9595 l -4.43689,1.3894 6.02045,3.20887 c 12.63731,6.73561 17.35334,13.08533 17.35334,23.36472 v 5.62564 l 6.25,3.28194 c 3.4375,1.80506 9.24304,6.24044 12.9012,9.85639 5.32613,5.26467 6.96971,7.64701 8.25,11.9582 2.9921,10.0755 1.5558,19.90991 -3.67122,25.13692 -6.06191,6.06192 -12.36606,3.02493 -20.99905,-10.11617 -7.07555,-10.77037 -17.39134,-14.54474 -25.40375,-9.29481 -2.85925,1.87346 -6.44582,7.20157 -8.10785,12.04481 l -1.11529,3.25 h 3.76648 c 9.45401,0 20.42137,5.55281 26.02966,13.17891 7.90146,10.74431 9.04527,20.91426 4.81609,42.82109 -4.84633,25.10369 -5.21627,29.28793 -5.21627,59 0,30.1253 0.74889,38.94537 5.17934,61 13.19804,65.6994 49.02059,128.15229 97.69235,170.31648 33.92459,29.38877 74.03282,50.56313 139.62831,73.71405 39.57415,13.96709 45.51727,15.96208 47.56241,15.96576 1.13433,0.002 5.85933,-1.29046 10.5,-2.87221 z m -17.56241,-36.23279 c -15.61538,-11.82195 -19.6345,-13.70144 -33.06288,-15.46142 -27.23011,-3.56889 -44.52174,-8.94379 -70.61409,-21.94954 -24.72778,-12.32558 -53.73061,-33.74091 -71.28136,-52.63327 -14.08743,-15.16431 -34.54167,-43.85006 -34.54167,-48.44248 0,-1.32252 -0.39197,-2.40458 -0.87104,-2.40458 -0.47907,0 -4.5636,-4.6125 -9.07674,-10.25 -7.87163,-9.83268 -8.18378,-10.41741 -7.66703,-14.36186 0.43851,-3.34723 -0.8548,-8.25588 -6.95491,-26.39678 -4.12147,-12.25671 -9.36242,-26.30721 -11.64655,-31.22334 -3.96731,-8.53882 -4.10041,-9.13493 -2.97723,-13.33434 0.92802,-3.46978 0.87131,-7.08613 -0.26918,-17.16481 -0.7947,-7.02288 -1.95316,-21.50112 -2.57436,-32.17387 l -1.12945,-19.405 2.99054,-4.24271 c 2.8759,-4.08008 3.03623,-4.88871 4.1824,-21.095 0.65553,-9.26876 1.76423,-20.15439 2.46378,-24.1903 1.18023,-6.80906 1.6443,-7.71507 6.43799,-12.56906 5.02181,-5.08497 5.25982,-5.59218 8.52268,-18.16199 6.55208,-25.24115 5.92201,-23.85385 14.674,-32.30972 8.31514,-8.0338 8.07003,-7.55123 11.28849,-22.22434 0.60633,-2.76426 25.29374,-27.5065 32.87708,-32.95011 2.55898,-1.83693 5.62039,-5.48704 7.75093,-9.24144 2.946,-5.19136 4.82514,-7.0704 11.5,-11.49939 15.05822,-9.99161 25.459,-16.20594 27.12352,-16.20594 1.37134,0 7.37945,-3.81294 9.37099,-5.94714 4.1644,-4.4627 8.51194,-6.74343 22.95484,-12.04213 9.01104,-3.3059 17.951,-6.01073 19.86658,-6.01073 2.25454,0 6.68865,-1.71604 12.57277,-4.86578 8.98758,-4.811 9.26438,-4.8846 24.5899,-6.53774 8.525,-0.91958 17.525,-1.58829 20,-1.48602 2.475,0.10227 8.69939,-1.02436 13.83197,-2.50363 5.13259,-1.47926 10.08259,-2.46699 11,-2.19495 0.91742,0.27205 8.86803,1.42705 17.66803,2.56668 8.8,1.13963 18.475,2.78872 21.5,3.66466 4.18285,1.21121 7.81366,1.44482 15.16109,0.9755 l 9.66108,-0.6171 9.96832,4.99031 c 5.48257,2.74467 15.08178,7.04538 21.33158,9.55713 6.2498,2.51175 11.70146,5.17112 12.1148,5.90972 0.41333,0.73859 4.01663,2.32294 8.00732,3.52079 3.9907,1.19784 12.76781,5.1328 19.50471,8.74435 9.92854,5.32255 13.43307,7.82688 18.5,13.22004 5.43805,5.78819 7.47193,7.1675 15.63747,10.60481 10.245,4.31268 9.5412,3.66418 24.34587,22.43254 4.54727,5.76472 13.05859,15.50072 18.91405,21.63555 5.85546,6.13484 10.87816,11.99325 11.16155,13.01869 0.2834,1.02545 1.06576,5.01445 1.73858,8.86445 1.52801,8.7436 2.40466,10.46479 9.89794,19.43341 3.3306,3.98635 6.05564,7.36395 6.05564,7.50577 0,0.14183 1.08448,5.16353 2.40995,11.15934 1.32547,5.99582 2.94116,14.72648 3.59041,19.40148 0.98012,7.05739 1.95812,9.85775 5.76245,16.5 l 4.58199,8 0.39482,24.5 c 0.30411,18.87131 0.75676,25.55621 1.97026,29.09737 1.44554,4.21831 1.43322,5.53752 -0.14939,16 -0.94866,6.27145 -2.81886,16.52888 -4.156,22.79431 -1.80321,8.4493 -2.27417,12.9694 -1.82335,17.5 0.58142,5.84302 0.27201,6.9987 -7.12374,26.60832 -13.77871,36.53388 -18.0177,45.44668 -33.66318,70.77933 -10.58835,17.14432 -17.95919,26.55088 -31.21036,39.83021 -24.90861,24.96154 -60.01615,48.90203 -89.81563,61.24696 -17.94063,7.4322 -42.39451,14.44598 -57.77287,16.57022 -5.32907,0.73612 -10.70233,3.6982 -25.33551,13.96656 -5.96208,4.1837 -11.13708,7.59499 -11.5,7.58065 -0.36292,-0.0143 -4.25985,-2.75153 -8.65985,-6.08264 z m 21.47914,-31.30122 c 2.48647,-1.25675 6.64338,-3.63827 9.23757,-5.29226 l 4.71671,-3.00726 -7.46414,-2.45268 -7.46414,-2.45267 -2.75257,2.89898 c -3.77256,3.97323 -8.74822,6.36127 -19.02374,9.13031 -6.82219,1.83845 -8.18275,2.48258 -6.22883,2.94894 9.18494,2.19221 22.77916,1.36032 28.97914,-1.77336 z m 49.87513,-7.63103 c 4.56598,-0.57252 11.83611,-2.15744 16.15583,-3.52204 6.49246,-2.05097 8.1968,-3.04069 9.83127,-5.70905 2.1898,-3.57497 6.53509,-17.1096 5.99932,-18.68658 -0.19308,-0.56832 -2.56453,0.0285 -5.47357,1.37765 -4.22238,1.95819 -5.64146,3.32472 -8,7.70375 -3.23123,5.99935 -7.23993,9.07118 -20.36712,15.60718 -4.675,2.32767 -8.03819,4.24066 -7.47377,4.25109 0.56443,0.0104 4.76205,-0.44947 9.32804,-1.022 z m -120.51316,-1.6086 c 1.64049,-0.91947 1.27677,-1.43736 -3.33783,-4.75262 l -5.17894,-3.72069 -6.22606,1.56143 c -3.42433,0.85879 -8.87481,1.56144 -12.11217,1.56144 -6.87784,0 -6.45979,0.73243 2.51389,4.40438 5.56448,2.27694 7.6514,2.61069 14.5,2.31886 4.4,-0.18748 8.8285,-0.80524 9.84111,-1.3728 z m 41.84745,-7.5825 4.68856,-1.33111 -5.18856,-2.96841 c -2.85371,-1.63263 -5.86356,-2.98944 -6.68856,-3.01513 -0.825,-0.0257 -1.38905,-0.58352 -1.25345,-1.23963 0.1356,-0.65611 -1.6644,-2.39629 -4,-3.86706 -2.3356,-1.47077 -6.49655,-4.31719 -9.24655,-6.32538 -20.62706,-15.0629 -22.22289,-16.02133 -26.66872,-16.01687 l -4.33128,0.004 6.5,6.09644 c 18.79581,17.62885 36.46573,31.29467 39.46275,30.5203 1.12049,-0.28952 4.1471,-1.12539 6.72581,-1.85749 z m -13.68148,-9.75649 c -0.35034,-0.56686 0.0511,-0.7345 0.94098,-0.39301 1.73242,0.66479 2.04939,1.38156 0.61096,1.38156 -0.51754,0 -1.21592,-0.44485 -1.55194,-0.98855 z m 86.14283,0.30976 6.1499,-2.67905 -7.1499,-3.19887 c -3.93245,-1.75938 -15.72735,-7.25923 -26.21088,-12.22188 -20.2896,-9.60462 -24.65686,-11.20361 -28.1152,-10.29387 -1.88371,0.49552 -1.21173,1.25881 5,5.67943 8.91071,6.34136 41.27308,25.12221 43.67617,25.34659 0.275,0.0257 3.26746,-1.15888 6.64991,-2.63235 z m -151.64991,-6.18747 c 0,-0.47644 -2.29541,-3.28894 -5.10092,-6.25 -3.98956,-4.21076 -4.61,-4.62118 -2.84771,-1.88374 l 2.25321,3.5 -2.31503,-2.19051 c -1.27326,-1.20479 -2.38934,-3.00479 -2.48018,-4 -0.0908,-0.99522 -1.84345,-3.60949 -3.89471,-5.80949 -2.05126,-2.2 -7.41621,-8.37218 -11.92211,-13.71595 -7.67892,-9.10682 -8.43047,-9.71809 -11.98749,-9.75 l -3.79494,-0.034 6.1155,8.03366 c 10.80016,14.18767 26.06459,32.02862 26.94019,31.48747 0.46722,-0.28875 1.90354,-0.10266 3.19184,0.41354 3.01649,1.20868 5.84235,1.30496 5.84235,0.19907 z m 219.4374,-3.73334 c 10.09635,-4.10252 18.55541,-10.21721 20.53724,-14.8455 1.98239,-4.62957 4.59457,-14.83102 5.57694,-21.77978 l 0.66797,-4.72488 -4.31755,2.28318 c -3.74996,1.98303 -4.5376,2.99857 -5.99132,7.72488 -4.23629,13.77296 -11.00635,22.45702 -24.30139,31.17179 l -6.10929,4.00458 3.99407,-0.70844 c 2.19674,-0.38964 6.67124,-1.79626 9.94333,-3.12583 z M 373.67867,728.93031 c -0.68525,-5.48457 -0.75542,-5.58419 -3.93325,-5.58419 -1.77955,0 -4.64308,0.49067 -6.3634,1.09037 l -3.12784,1.09037 5.9652,3.98341 c 3.28086,2.19088 6.2413,4.43015 6.57876,4.97616 1.231,1.9918 1.56235,-0.099 0.88053,-5.55612 z m 115.60664,-10.99516 c -0.90111,-1.08577 -0.87576,-1.59345 0.10997,-2.20266 1.76738,-1.0923 4.81614,-1.2311 4.81614,-0.21925 0,0.45808 -0.525,0.83288 -1.16667,0.83288 -0.64166,0 -0.86942,0.29724 -0.50613,0.66054 0.83505,0.83504 4.78883,-2.66378 4.15998,-3.68128 -0.25611,-0.4144 0.13129,-0.69176 0.86088,-0.61636 1.31435,0.13584 9.69775,-6.97771 11.23633,-9.53434 0.61804,-1.02699 0.40998,-1.01247 -0.9166,0.0639 -0.94387,0.76588 -2.00525,1.10338 -2.35862,0.75 -0.35338,-0.35337 -0.14547,-0.6425 0.46201,-0.6425 0.60749,0 1.04002,-0.85635 0.96117,-1.90301 -0.0947,-1.2574 -0.75214,-1.78576 -1.93785,-1.55741 -0.98697,0.19007 -1.7945,-0.0786 -1.7945,-0.597 0,-2.06652 -2.79684,-0.73429 -6.54705,3.11858 -2.17412,2.23364 -6.33077,5.90018 -9.23699,8.14787 -2.90623,2.2477 -5.13626,4.53007 -4.95564,5.07194 0.2605,0.78149 3.29683,2.21735 7.61212,3.59972 0.20485,0.0656 -0.1545,-0.51563 -0.79855,-1.29166 z m 8.92611,-6.96659 c 0,-0.20765 0.7875,-0.99515 1.75,-1.75 1.58606,-1.24387 1.62143,-1.2085 0.37756,0.37756 -1.30637,1.66575 -2.12756,2.19548 -2.12756,1.37244 z m 140.91679,3.31182 c 1.25679,-2.23615 2.12447,-4.22633 1.92819,-4.42261 -0.19629,-0.19629 -6.6542,-1.78859 -14.35093,-3.53846 -7.69673,-1.74987 -19.0701,-4.47095 -25.27417,-6.04684 -10.84451,-2.75462 -11.41411,-2.80137 -14.75,-1.2106 -1.90843,0.91007 -3.46744,1.90883 -3.46445,2.21946 0.003,0.31064 4.84048,2.06463 10.75,3.89776 5.90951,1.83313 14.65114,4.88094 19.42583,6.77291 4.77469,1.89197 9.04969,3.3582 9.5,3.25828 0.45031,-0.0999 1.49374,0.08 2.31874,0.39986 1.73128,0.67121 8.99004,2.47983 10.56586,2.63263 0.58622,0.0568 2.09414,-1.72623 3.35093,-3.96239 z m -14.6906,-5.51298 c 0.94941,-0.99123 1.94144,-1.58698 2.20452,-1.3239 0.26308,0.26308 -0.5137,1.07408 -1.72619,1.80223 -2.10631,1.26492 -2.12762,1.24361 -0.47833,-0.47833 z m -157.85318,3.10348 c 7.33798,-5.35976 10.62699,-8.13117 10.62699,-8.95461 0,-1.19 -5.60154,0.41837 -12.7157,3.65104 -6.21662,2.82483 -7.22046,3.6365 -7.25,5.86214 -0.0695,5.23417 1.53973,5.13792 9.33871,-0.55857 z m 72.55444,-10.02476 c 2.59537,-3.85 5.04174,-7.54915 5.43638,-8.22032 0.52972,-0.90093 -0.52458,-1.16266 -4.02819,-1 l -4.74571,0.22032 -6.24624,9.96985 -6.24624,9.96984 2.70127,1.13011 c 2.43336,1.01801 2.98438,0.82264 5.55558,-1.96985 1.56986,-1.70497 4.97778,-6.24995 7.57315,-10.09995 z m -112.46868,1.40506 c 4.64181,-2.34322 8.23098,-4.59805 7.97592,-5.01073 -0.25505,-0.41269 0.4428,-1.03806 1.55079,-1.38972 3.50843,-1.11353 2.19405,-2.20815 -3.44766,-2.87122 -5.22241,-0.61379 -5.76016,-0.45002 -12.25,3.73073 -3.7333,2.40498 -8.70032,5.34106 -11.03782,6.52461 -4.73913,2.39958 -4.90883,2.72579 -2.69217,5.17517 1.47301,1.62766 1.82744,1.62284 6.50956,-0.0885 2.72345,-0.99546 8.74958,-3.7271 13.39138,-6.07031 z m 274.33399,-7.3218 c 4.14897,-4.72542 5.48276,-7.43395 8.48546,-17.23144 l 2.49723,-8.14817 -4.88772,-4.81424 -4.88773,-4.81423 -0.0171,3.96241 c -0.0438,10.13057 -6.94022,27.7681 -14.94926,38.2327 -2.21848,2.89865 -4.0336,5.49987 -4.0336,5.78047 0,1.18894 14.89382,-9.6658 17.79276,-12.9675 z m -139.29276,8.41674 c -0.33992,-0.55 -0.10932,-1 0.51245,-1 0.88565,0 12.98755,-23.66179 12.98755,-25.39342 0,-0.23064 -0.9,-0.18399 -2,0.10367 -1.1,0.28766 -2.00689,1.03303 -2.01531,1.65638 -0.008,0.62335 -0.43396,0.4714 -0.94563,-0.33767 -0.51167,-0.80907 -1.12877,-1.25907 -1.37133,-1 -0.69644,0.74386 -13.66773,25.82696 -13.66773,26.42984 0,0.29766 1.60156,0.5412 3.55902,0.5412 2.11803,0 3.30878,-0.40488 2.94098,-1 z m -203.09309,-1.25 c -0.39111,-0.6875 -1.38742,-2.0375 -2.214,-3 -1.33966,-1.55994 -1.33082,-1.94013 0.0814,-3.50063 1.23993,-1.3701 1.3428,-2.18522 0.47326,-3.75 -1.57079,-2.82671 -10.83526,-13.92514 -11.9935,-14.36768 -2.61128,-0.99774 5.06073,15.56953 9.87962,21.33447 3.74952,4.48563 5.1506,5.70499 3.77321,3.28384 z m 1.93817,-2.29313 c -0.32569,-0.84872 -0.80663,-1.32866 -1.06875,-1.06653 -0.26213,0.26213 -0.17998,0.95654 0.18255,1.54313 0.98605,1.59546 1.56238,1.28551 0.8862,-0.4766 z m 24.15492,-14.42156 c 0.55,-0.003 0.36919,0.3947 -0.4018,0.88284 -0.92295,0.58434 0.44344,0.91513 4,0.96836 6.42996,0.0962 11.11223,-0.73702 10.42154,-1.85458 -0.27375,-0.44292 0.17233,-1.3614 0.99127,-2.04107 0.81894,-0.67966 1.48899,-1.63065 1.48899,-2.1133 0,-1.01715 -17.76462,-1.15639 -29.6341,-0.23229 l -8.1341,0.63329 1.89967,3.21969 1.89967,3.2197 8.23443,-1.33898 c 4.52894,-0.73644 8.68443,-1.34109 9.23443,-1.34366 z m 6.76903,-0.7283 c 0.97297,-0.25354 2.32297,-0.23687 3,0.0371 0.67703,0.27393 -0.11903,0.48137 -1.76903,0.46099 -1.65,-0.0204 -2.20394,-0.2445 -1.23097,-0.49804 z m -54.98756,0.66132 c -0.70488,-2.69545 -2.62505,-3.57731 -9.64362,-4.42895 -4.14474,-0.50293 -5.66423,-0.39108 -5.18659,0.38176 1.31466,2.12717 9.46699,5.55708 14.20512,5.9765 0.68379,0.0605 0.93925,-0.72795 0.62509,-1.92931 z m 268.11006,-9.01539 c 0.36142,-2.26015 1.08015,-3.77946 1.62781,-3.44099 0.88619,0.5477 1.40711,-1.73701 1.22838,-5.38749 -0.037,-0.75655 1.09206,-2.37283 2.50912,-3.59173 1.41706,-1.2189 2.68471,-3.2999 2.81702,-4.62446 0.1323,-1.32455 0.6842,-4.0926 1.22644,-6.15122 0.59103,-2.24384 0.61214,-3.51195 0.0527,-3.16621 -0.54513,0.33691 -0.67496,-0.60167 -0.31222,-2.25705 0.4958,-2.26257 0.38988,-2.53143 -0.52542,-1.33379 -0.93612,1.22487 -1.03031,1.0873 -0.5135,-0.75 0.74608,-2.65237 0.58425,-2.69488 -3.06047,-0.80398 -2.52311,1.309 -2.99843,2.46972 -5.01643,12.25 -1.22608,5.94219 -2.90837,13.61648 -3.73842,17.05398 l -1.50918,6.25 h 2.2835 c 1.89524,0 2.39354,-0.68812 2.93065,-4.04706 z m 4.68742,-18.53627 c 0.048,-1.16495 0.28494,-1.4019 0.60416,-0.60417 0.28887,0.72187 0.25335,1.58438 -0.0789,1.91667 -0.33229,0.33229 -0.56864,-0.25834 -0.52522,-1.3125 z m -110.9349,20.57333 c 37.89277,-3.69561 71.687,-19.32125 98.99013,-45.77067 19.42831,-18.82083 34.36798,-40.16536 44.42619,-63.47235 3.57103,-8.27481 3.93522,-8.74099 6.66625,-8.53289 4.76171,0.36283 5.50721,2.54361 0.77833,2.27679 -2.20272,-0.12429 -4.00495,0.11564 -4.00495,0.53316 0,0.93461 5.03145,2.27785 5.76912,1.54017 0.29322,-0.29322 1.06271,0.19113 1.70999,1.07633 0.64727,0.8852 2.44782,1.60946 4.00121,1.60946 2.32634,0 2.52228,0.16904 1.11127,0.95868 -0.94219,0.52728 -2.36073,0.71015 -3.15233,0.40639 -0.79159,-0.30377 -1.43926,-0.16891 -1.43926,0.29968 0,0.46859 -0.9,1.08734 -2,1.375 -2.01042,0.52574 -2.86872,3.71025 -1,3.71025 0.55,0 0.8875,-0.53463 0.75,-1.18807 -0.13841,-0.65779 1.32736,-1.46454 3.28397,-1.80747 1.94368,-0.34066 4.08118,-0.95759 4.75,-1.37094 0.66881,-0.41336 1.21603,-0.29736 1.21603,0.25777 0,0.55513 -0.67288,1.38589 -1.49529,1.84613 -1.3102,0.73323 -1.25205,1.71455 0.46986,7.92824 2.4974,9.01217 5.90487,27.9832 6.81961,37.96798 0.43344,4.73121 1.18821,7.8643 1.95582,8.11872 0.96044,0.31833 1.25,-2.84807 1.25,-13.66903 v -14.08333 h 2.42857 c 1.33572,0 3.09236,-0.66378 3.90365,-1.47508 1.3001,-1.3001 1.89541,-0.20285 5.01858,9.25 4.0948,12.39369 4.36339,11.87918 1.70966,-3.27492 -2.09353,-11.95506 -3.29143,-15.77467 -11.68828,-37.2693 l -5.57429,-14.2693 1.9706,-4.2307 c 1.08384,-2.32689 2.27934,-5.22652 2.65668,-6.44363 0.55341,-1.78503 2.38768,1.21208 9.48616,15.5 4.84005,9.74211 9.60242,19.85374 10.58305,22.47029 2.03454,5.42863 3.22386,5.17542 6.57871,-1.40062 2.31882,-4.54527 2.3462,-4.85674 0.42691,-4.85674 -0.825,0 -1.5,0.45 -1.5,1 0,0.55 -0.65603,1 -1.45785,1 -2.66658,0 -8.43554,-11.96553 -5.79215,-12.01365 0.4125,-0.008 1.7625,-0.285 3,-0.61664 1.85866,-0.4981 2.26222,-0.19135 2.32029,1.76366 0.0386,1.30165 0.49789,3.26663 1.02052,4.36663 0.88551,1.86376 0.92116,1.84673 0.52334,-0.25 -0.2348,-1.2375 -0.0714,-2.25 0.36311,-2.25 1.4118,0 8.02047,7.95558 8.10169,9.75288 0.0434,0.96092 0.28274,1.25416 0.53182,0.65165 0.61248,-1.48155 -4.64178,-15.529 -9.18682,-24.56125 -2.03233,-4.0388 -7.34662,-13.41828 -11.80954,-20.84328 l -8.11441,-13.5 0.19702,-6.86369 c 0.10837,-3.77503 0.45831,-7.12497 0.77765,-7.44431 1.01944,-1.01944 17.67067,20.84531 23.98671,31.49699 l 2.96138,4.99422 3.30189,-3.9521 3.30189,-3.9521 -2.18069,-3.63951 c -1.19938,-2.00172 -3.63636,-5.46155 -5.41551,-7.68849 -2.34137,-2.93068 -2.98948,-4.48739 -2.34655,-5.63625 0.65804,-1.17585 -0.424,-3.28712 -4.17459,-8.14546 -3.31409,-4.29292 -4.94997,-7.31577 -4.73603,-8.75143 0.27304,-1.83225 2.50444,0.0514 13.55733,11.44445 7.27677,7.50072 13.46427,13.63768 13.75,13.63768 3.43597,0 -12.13714,-19.78426 -29.21538,-37.11557 l -16.37295,-16.61556 0.30391,-5.79235 0.30392,-5.79235 11.5,9.30343 c 6.325,5.1169 13.57684,11.29879 16.1152,13.73756 l 4.6152,4.43411 2.54603,-3.25322 2.54602,-3.25322 -5.60591,-6.34579 c -3.08326,-3.49018 -8.2419,-8.63848 -11.46364,-11.44067 -3.22175,-2.80219 -5.65127,-5.30133 -5.39895,-5.55365 0.58543,-0.58544 8.42635,4.86929 24.33378,16.92841 0.81179,0.61541 1.68538,-0.062 2.76003,-2.1401 l 1.5723,-3.0405 -6.76003,-5.58128 c -3.71802,-3.0697 -14.86003,-10.99671 -24.76003,-17.61557 -17.85328,-11.9362 -18.02242,-12.08361 -20.75,-18.08485 -1.5125,-3.3278 -2.75,-6.21817 -2.75,-6.42304 0,-0.64473 21.20161,10.3461 28,14.51508 l 6.5,3.986 0.86075,-4.44252 c 1.08152,-5.58191 0.9044,-5.7981 -11.53397,-14.07866 -5.40473,-3.59807 -9.82678,-6.71487 -9.82678,-6.92621 0,-0.21134 2.475,0.73507 5.5,2.10313 3.025,1.36806 7.98783,3.61239 11.02851,4.98739 3.04069,1.375 5.74069,2.5 6,2.5 0.25932,0 0.47149,-1.95838 0.47149,-4.35196 v -4.35196 l -6.99031,-3.22205 c -3.84467,-1.77212 -14.75717,-5.85739 -24.25,-9.07837 l -17.25969,-5.85633 -3.34314,-5.16958 -3.34315,-5.16958 3.34315,0.68589 c 5.55237,1.13913 17.92367,4.29282 25.17297,6.41708 l 6.82983,2.00135 -0.63336,-4.20224 c -1.42682,-9.4668 -1.16668,-9.07583 -7.3009,-10.97282 -7.73782,-2.3929 -31.71183,-9.33093 -36.9754,-10.7006 -2.3375,-0.60825 -4.25,-1.5801 -4.25,-2.15964 0,-0.57955 -0.9063,-2.20591 -2.014,-3.61412 -1.10771,-1.40822 -1.83686,-2.73755 -1.62034,-2.95407 0.73443,-0.73442 20.07421,2.71493 32.89785,5.86751 7.01993,1.72579 12.97438,2.92694 13.2321,2.66922 1.09165,-1.09166 -2.92215,-19.26087 -6.75065,-30.55798 l -4.14134,-12.22024 -5.55181,-1.11338 c -3.05349,-0.61235 -6.59751,-1.35786 -7.87559,-1.65668 -2.20798,-0.51623 -2.10176,-0.10091 2.13126,8.33362 4.74878,9.46223 10.3044,24.09838 9.46568,24.93711 -0.27807,0.27806 -6.07828,-0.61203 -12.88937,-1.97799 -6.81108,-1.36597 -17.22129,-3.01746 -23.13379,-3.66999 -9.24974,-1.02085 -10.75,-1.43785 -10.75,-2.98804 0,-2.5407 5.82721,-3.16751 20.31312,-2.18498 6.49722,0.44068 11.95078,0.66359 12.11901,0.49535 0.16824,-0.16823 -0.81754,-2.70672 -2.19062,-5.64107 l -2.49651,-5.3352 -5.67391,-0.59304 c -3.12064,-0.32617 -13.75077,-0.88437 -23.6225,-1.24043 -15.96899,-0.57599 -18.69581,-0.9325 -24.7235,-3.2324 -10.48708,-4.00141 -7.29431,-4.69699 21.41051,-4.66452 27.46556,0.0311 25.51764,0.70277 20.96326,-7.22879 -2.67346,-4.6559 -6.53676,-6.77611 -10.78281,-5.91768 -3.73505,0.75511 -48.11725,4.96862 -51.31605,4.87178 -4.39102,-0.13294 -15.27898,-3.519 -13.83933,-4.30391 5.01375,-2.73357 48.14083,-7.91349 66.08645,-7.93755 8.61518,-0.0115 8.80613,0.0416 12.65955,3.52292 3.57169,3.22681 4.68236,3.62052 12.75288,4.52059 4.86225,0.54226 10.41545,1.24298 12.34045,1.55716 l 3.5,0.57122 -3,-2.58755 c -5.43385,-4.68679 -17.17275,-10.59419 -25.06162,-12.61182 -10.13371,-2.59177 -11.2963,-2.58972 -8.93838,0.0158 1.77068,1.95658 1.74691,1.9995 -1.09501,1.97683 -1.59775,-0.0127 -8.75499,-1.50287 -15.90499,-3.31139 -12.26449,-3.10218 -13.47098,-3.23164 -21.3244,-2.2882 -6.57658,0.79005 -8.49205,0.72877 -9.12283,-0.29186 -0.59043,-0.95533 -1.30897,-1.01863 -2.75829,-0.24298 -3.73139,1.99698 -45.81123,12.54112 -49.79448,12.47723 -2.2,-0.0353 -6.2331,-0.72964 -8.96244,-1.54302 -4.3492,-1.29611 -4.71993,-1.607 -3,-2.51582 1.07934,-0.57034 13.86562,-4.02801 28.41394,-7.68371 14.54833,-3.65571 26.61974,-6.81498 26.82536,-7.02061 0.20562,-0.20562 -0.58962,-0.67965 -1.76721,-1.05341 -1.17758,-0.37375 -3.69072,-2.04016 -5.58475,-3.70314 l -3.44369,-3.0236 -11.2406,3.03929 c -6.18234,1.67161 -12.02811,3.34509 -12.99061,3.71883 -1.48756,0.57763 -1.75,0.082 -1.75,-3.30501 0,-2.1915 0.57817,-4.46438 1.28482,-5.05085 0.70665,-0.58646 5.23319,-2.3931 10.05898,-4.01475 4.82579,-1.62165 8.97588,-3.15018 9.22243,-3.39673 0.24655,-0.24655 -6.50656,-0.98268 -15.0069,-1.63585 -14.53252,-1.11669 -15.8053,-1.06964 -21.32002,0.78813 -9.92096,3.34213 -34.44605,13.85735 -37.38095,16.02722 -3.41752,2.52668 -3.85836,2.54733 -3.85836,0.18076 0,-1.80354 5.52179,-7.42474 11.45856,-11.66485 l 2.85278,-2.0375 -10.90567,0.89496 -10.90567,0.89496 -11.5,6.77363 c -6.325,3.72549 -15.25812,8.96463 -19.85138,11.64253 -11.36688,6.62697 -16.09935,11.62365 -35.46591,37.4459 -2.30049,3.06734 -6.32021,6.87285 -8.93271,8.45668 -2.6125,1.58382 -4.75,3.23668 -4.75,3.67301 0,0.43632 -0.49878,0.79332 -1.10841,0.79332 -1.5154,0 -0.42712,-4.12729 3.03229,-11.5 3.49607,-7.45084 11.37244,-16.16214 22.20855,-24.56276 9.66456,-7.4924 18.63862,-15.64093 19.9745,-18.13704 0.87779,-1.64016 0.67357,-1.63569 -3.33595,0.073 -2.34904,1.00104 -6.74598,2.62139 -9.77098,3.60077 -4.36027,1.41169 -7.26545,3.4639 -14.01956,9.90338 -4.68575,4.46748 -11.69198,11.07061 -15.5694,14.67362 l -7.04984,6.55094 -5.15778,15.18405 c -2.83678,8.35123 -5.44183,16.31581 -5.78901,17.69907 -0.34717,1.38325 -1.23923,2.51501 -1.98235,2.51501 -0.74312,0 -2.54483,1.2375 -4.00381,2.75 l -2.65269,2.75 0.55906,-6.5 c 0.78203,-9.09248 3.97289,-18.65969 8.39847,-25.18135 10.65506,-15.70167 12.26691,-18.19643 12.26691,-18.98631 0,-1.06012 -6.33525,2.84139 -15.22437,9.3758 l -6.72438,4.9431 -3.46876,10.72995 c -3.66686,11.34273 -7.58249,31.71838 -7.58249,39.45677 0,3.84097 -0.42693,4.89559 -2.54313,6.28218 -1.39872,0.91647 -3.15202,2.82844 -3.89623,4.2488 -1.28977,2.46162 -1.38775,2.25897 -2.09336,-4.32996 -0.86721,-8.09792 -0.008,-21.35294 1.97956,-30.52951 0.77308,-3.56974 1.31234,-6.5837 1.19836,-6.69769 -0.45267,-0.45266 -18.74234,17.43125 -21.1133,20.6449 -2.09365,2.83778 -2.5319,4.54979 -2.5319,9.89073 0,7.9592 2.77334,33.52074 4.09848,37.77527 0.76408,2.45315 0.53615,4.23014 -1.06292,8.28702 -1.11956,2.84034 -2.04314,6.6101 -2.05241,8.37724 l -0.0168,3.21298 -1.9037,-3 c -3.36398,-5.30122 -5.98082,-14.99195 -7.19437,-26.64231 l -1.1831,-11.35769 -6.39107,6.0859 c -7.5267,7.1673 -9.14052,11.20714 -9.95261,24.9141 -0.4153,7.00979 -0.0688,11.04725 1.56677,18.25795 2.24819,9.91132 5.42517,19.88891 7.87115,24.72005 1.47748,2.91821 1.5243,2.93327 2.33194,0.75 1.09956,-2.9724 3.24542,-2.95217 2.33364,0.022 -0.37938,1.2375 -1.07365,2.73279 -1.54283,3.32287 -1.16748,1.46833 -1.54228,18.33703 -0.4759,21.41929 0.77186,2.23098 0.69097,2.35003 -0.77181,1.13603 -2.40112,-1.99275 -14.08474,-26.32325 -17.21101,-35.84099 l -2.69765,-8.2128 -4.22618,3.46304 c -4.13819,3.39093 -4.23965,3.62234 -4.8729,11.11368 -2.0576,24.34133 -0.62945,30.04984 12.67503,50.66374 6.6998,10.38064 8.61369,11.82598 8.66294,6.54213 0.008,-0.90366 0.66115,-1.89084 1.45051,-2.19375 1.08378,-0.41589 0.0679,-2.58451 -4.14917,-8.85699 -8.12933,-12.09167 -9.98377,-16.79364 -10.76948,-27.30625 -0.36996,-4.95 -0.88875,-10.125 -1.15288,-11.5 -0.26412,-1.375 1.91711,2 4.84718,7.5 4.56296,8.56507 9.12668,16.13002 12.05815,19.98796 0.49008,0.64496 1.2155,0.43655 2,-0.57462 0.67705,-0.87266 2.29145,-2.15165 3.58756,-2.84221 1.91515,-1.02038 2.24712,-1.80273 1.77231,-4.17679 -0.51922,-2.5961 -0.3363,-2.88032 1.64344,-2.55359 1.22523,0.20221 1.66519,0.17526 0.97769,-0.0599 -0.6875,-0.23514 -1.25689,-1.18203 -1.26531,-2.1042 -0.0129,-1.41548 -0.15944,-1.44882 -0.94044,-0.21403 -0.64062,1.01282 -0.86657,0.18372 -0.73469,-2.69591 0.13809,-3.01542 0.67149,-4.28514 1.94044,-4.61903 2.0534,-0.5403 2.51581,2.87489 0.5,3.69283 -0.97713,0.39648 -0.95849,0.71194 0.0854,1.44513 0.73448,0.51587 1.29698,1.22513 1.25,1.57613 -0.047,0.35101 0.21396,0.7507 0.57986,0.8882 0.3659,0.1375 0.77619,-2.11111 0.91177,-4.99691 0.23921,-5.09185 0.17522,-5.22902 -2.16527,-4.64159 -1.4625,0.3671 -2.41176,0.16908 -2.41176,-0.50306 0,-0.60963 0.9,-1.10841 2,-1.10841 1.21132,0 2.02772,-0.6901 2.07029,-1.75 0.0613,-1.52593 0.16723,-1.50242 0.82749,0.18362 0.52054,1.32926 0.98586,1.56367 1.48873,0.75 0.40234,-0.65099 1.63152,-1.18362 2.73152,-1.18362 1.1,0 1.72189,0.45 1.38197,1 -0.33992,0.55 -1.49148,1 -2.55902,1 -1.40371,0 -1.94098,0.692 -1.94098,2.5 0,2.01537 0.49607,2.5 2.55902,2.5 1.51805,0 2.29738,0.42333 1.91584,1.04068 -0.35375,0.57237 -1.5053,0.76705 -2.55902,0.43261 -1.29621,-0.4114 -1.91584,-0.13141 -1.91584,0.8657 0,0.95206 0.66804,1.29907 1.88714,0.98027 1.03793,-0.27142 2.18949,-0.004 2.55902,0.59362 0.41385,0.66963 -0.26729,1.08712 -1.77364,1.08712 -1.95757,0 -2.53416,0.60396 -2.88978,3.02692 -0.27694,1.88692 -0.0388,2.89177 0.63226,2.66808 0.59208,-0.19736 1.07843,-1.22198 1.08076,-2.27692 0.003,-1.20082 0.81032,-2.03295 2.15983,-2.22526 1.92305,-0.27404 2.24813,-1.19099 3.01347,-8.5 0.91234,-8.71294 0.99298,-8.51179 -4.06219,-10.13283 -1.04122,-0.33389 -1.62669,-0.8735 -1.30104,-1.19915 0.32564,-0.32564 1.96505,-0.11346 3.64312,0.47152 2.41896,0.84325 3.05105,0.7842 3.05105,-0.28504 0,-0.74175 -1.6875,-1.81354 -3.75,-2.38174 l -3.75,-1.03311 4.32747,0.35684 c 3.42478,0.28239 4.21355,0.06 3.78138,-1.06624 -0.30034,-0.78269 -0.0603,-1.42307 0.53332,-1.42307 0.59367,0 0.017,-0.88503 -1.28139,-1.96673 -2.59093,-2.15847 -1.30219,-2.80774 1.50245,-0.75694 1.4927,1.09149 1.60223,1.92424 0.75628,5.75 -6.13828,27.76025 -5.54709,63.48591 1.46407,88.47367 17.41535,62.06823 64.81194,107.73028 125.00389,120.4292 17.86882,3.76985 32.81873,4.69321 49.55658,3.0608 z m -32.14405,-5.57841 c -1.375,-0.24317 -6.775,-1.14009 -12,-1.99315 -29.85266,-4.87387 -58.55695,-19.97359 -81.55395,-42.90098 -33.13702,-33.0367 -49.37029,-72.52417 -49.42773,-120.23308 -0.0371,-30.85082 5.86357,-56.16911 19.34865,-83.0195 30.83378,-61.39373 94.12618,-99.30813 160.06116,-95.88236 28.55142,1.48345 55.39397,10.5185 80.65003,27.14635 10.00258,6.58541 31.89037,28.68885 39.10794,39.49327 12.20639,18.27246 19.82002,35.53857 24.80671,56.25638 3.76427,15.63912 5.00719,26.03838 5.00719,41.89403 0,46.03753 -16.62565,89.50669 -47.49416,124.17743 -19.53764,21.94419 -40.79628,36.44799 -68.11952,46.47484 -17.62794,6.46895 -27.91289,8.27678 -49.38632,8.68082 -10.175,0.19145 -19.625,0.14913 -21,-0.094 z m 46.24405,-13.79048 c 41.76106,-9.18832 74.03982,-32.47267 101.52213,-73.23316 19.40084,-28.77443 29.65529,-70.89494 26.27447,-107.92325 -2.38579,-26.1303 -11.12546,-51.77041 -24.35941,-71.4647 -27.69717,-41.21792 -65.40603,-62.99336 -115.18124,-66.51279 -31.54303,-2.2303 -71.1242,10.08195 -98,30.4842 -35.23294,26.74641 -58.02445,63.96706 -66.17699,108.07317 -2.45049,13.25743 -2.42442,41.5412 0.052,56.45542 4.58517,27.6137 18.5511,56.786 37.07636,77.44581 24.72974,27.5792 55.64714,43.78405 93.54859,49.03198 11.50342,1.59279 32.19133,0.51519 45.24405,-2.35668 z m -54.16792,-15.74088 c -22.22532,-4.66437 -43.7255,-15.2259 -60.44714,-29.69344 -25.48297,-22.04782 -43.59766,-56.24309 -48.30552,-91.18679 -5.66334,-42.03559 9.81667,-88.53662 40.22117,-120.82207 27.0174,-28.68879 60.7683,-44.32595 99.00944,-45.87214 36.02411,-1.45656 70.00706,11.72327 96.59992,37.46498 25.80993,24.98384 40.03958,57.93572 41.5548,96.22923 1.56328,39.50822 -12.29706,77.60146 -39.47804,108.5 -21.41159,24.34006 -50.25861,40.59064 -81.61175,45.97488 -12.82703,2.20277 -35.56879,1.91832 -47.54288,-0.59465 z m 51.42387,-11.701 c 2.50167,-0.44667 -1.61874,-0.75324 -11,-0.81843 -16.59671,-0.11533 -25.18102,-1.54108 -39.33427,-6.53294 -29.2551,-10.31829 -53.47394,-31.31941 -67.36314,-58.41325 -9.27762,-18.09798 -12.80148,-32.944 -12.7972,-53.91461 0.003,-15.84109 1.89646,-28.14005 6.54533,-42.52046 3.38216,-10.46204 13.86353,-32.56982 17.17767,-36.23191 0.87598,-0.96794 1.34475,-2.00782 1.04172,-2.31085 -0.30302,-0.30303 -3.49262,3.36858 -7.08798,8.15912 -25.74828,34.30761 -33.15233,74.24381 -20.78247,112.09706 4.14675,12.68953 8.21906,21.25971 14.80601,31.15929 18.77089,28.21092 47.57934,45.74584 82.29577,50.09123 7.69558,0.96324 29.36452,0.50951 36.49856,-0.76425 z m 4.5,-28.13065 c 16.83252,-4.30584 35.79725,-15.6125 48.04812,-28.64601 21.37742,-22.74311 33.76276,-56.95876 31.00767,-85.66154 -3.47963,-36.25121 -22.66167,-64.7566 -53.3647,-79.3024 -11.89652,-5.63607 -21.32212,-7.66738 -36.19109,-7.79955 -18.99833,-0.16887 -34.57057,3.96673 -50.44315,13.39645 -24.41077,14.50217 -44.39784,43.24503 -50.7377,72.96447 -2.80935,13.16945 -2.36103,35.47552 0.96712,48.11888 7.22167,27.4345 24.46118,49.72808 47.27612,61.13595 8.35763,4.17896 12.41823,5.5455 21.79781,7.33579 10.36894,1.97913 30.83803,1.2211 41.6398,-1.54204 z m -32.52345,-12.97037 c -41.19706,-6.59828 -66.72668,-38.65959 -66.5471,-83.57302 0.0309,-7.73673 0.71912,-15.21475 1.93554,-21.03218 1.98584,-9.49711 5.73438,-19.47301 7.31717,-19.47301 0.51473,0 0.68151,-0.41157 0.37063,-0.91459 -0.31089,-0.50302 -0.22495,-1.06552 0.19098,-1.25 0.41593,-0.18448 2.06767,-2.36041 3.67053,-4.83541 12.94297,-19.98534 28.50169,-31.74712 51.0857,-38.61878 7.86383,-2.39273 10.70426,-2.74276 22.5,-2.77266 12.20655,-0.0309 14.26649,0.23103 21.5,2.73419 23.01359,7.96389 41.21999,25.42711 49.07742,47.0741 9.22764,25.42185 6.7309,54.70872 -6.65907,78.11136 -11.82206,20.6623 -33.29746,37.44599 -54.91835,42.92038 -7.68797,1.94659 -22.45518,2.7617 -29.52345,1.62962 z m 26.57884,-3.10785 c 2.54345,-1.36122 4.94461,-6.14156 4.94461,-9.84397 0,-3.7788 -4.13455,-8.7774 -7.95404,-9.6163 -5.52736,-1.21401 -12.04596,4.06868 -12.04596,9.76208 0,3.44268 2.37352,8.26356 4.74998,9.64772 2.28215,1.32923 7.86493,1.35657 10.30541,0.0505 z m -60.5506,-25.38424 c 4.70463,-4.70463 4.34804,-12.11364 -0.76682,-15.93243 -8.05448,-6.01354 -18.41736,2.16878 -14.79923,11.68518 2.55401,6.71755 10.83599,8.97731 15.56605,4.24725 z m 33.92621,-7.5815 c -7.41576,-3.59764 -15.68537,-12.00176 -20.66842,-21.00462 -4.06828,-7.35015 -5.50513,-12.02246 -7.2268,-23.5 l -1.20002,-8 -1.34997,7.37274 c -3.88963,21.24296 8.43392,40.98723 29.03845,46.52417 7.95338,2.13726 8.19311,1.9 1.40676,-1.39229 z m 24.16505,-8.57557 c 5.81813,-1.69137 13.67598,-7.29701 17.79045,-12.69136 6.36812,-8.34904 8.9144,-19.0866 7.50545,-31.6502 -2.09481,-18.67942 -14.75581,-30.08749 -33.39195,-30.08749 -14.27061,0 -25.39118,6.93967 -31.71943,19.79415 -3.10589,6.30897 -3.28057,7.25063 -3.28057,17.68482 0,9.96839 0.25913,11.54635 2.71305,16.52103 3.65054,7.40053 13.35231,16.63237 20.62081,19.62198 6.66356,2.7408 12.3163,2.97165 19.76219,0.80707 z M 563.3436,521.7265 c 2.87574,-2.60251 4.02678,-8.06444 2.47953,-11.76588 -1.75361,-4.19512 -3.77407,-5.69246 -8.54457,-6.33232 -3.59403,-0.48206 -4.37828,-0.17104 -7.53922,2.9899 -2.86806,2.86806 -3.52792,4.28043 -3.52792,7.55119 0,4.61466 3.64423,9.81849 7.28413,10.40148 3.05394,0.48915 7.62266,-0.83042 9.84805,-2.84437 z M 444.62253,487.26939 c 3.3712,-4.00644 3.5163,-9.74438 0.33889,-13.40127 -2.96941,-3.41749 -8.77082,-4.3936 -12.31416,-2.07192 -8.4072,5.50861 -4.78684,18.54992 5.14958,18.54992 3.5034,0 4.68493,-0.53259 6.82569,-3.07673 z m 70.14039,-37.51473 c 8.15183,-3.8683 6.03917,-17.2691 -2.98953,-18.96289 -6.28561,-1.17919 -11.50344,3.43321 -11.53973,10.20076 -0.0188,3.50822 0.52181,4.62409 3.51256,7.25 3.98829,3.50176 6.18768,3.80365 11.0167,1.51213 z m -80.94387,-41.26268 c 8.78816,-5.93853 27.43465,-14.62259 37.89237,-17.64725 14.73329,-4.26128 27.21813,-5.7817 42,-5.11483 7.15,0.32256 14.125,0.81339 15.5,1.09073 1.375,0.27734 0.4963,-0.1638 -1.95267,-0.98032 -8.42555,-2.80918 -25.88165,-4.78637 -36.5789,-4.14315 -18.34983,1.10337 -38.91092,8.00047 -51.87217,17.40025 -6.44694,4.67545 -15.60305,13.29158 -20.95633,19.72042 l -4.13993,4.97171 7,-5.58518 c 3.85,-3.07185 9.74843,-7.44242 13.10763,-9.71238 z m 219.81777,157.97485 c 0.73332,-1.18654 4.5746,-2.13882 4.5746,-1.13408 0,0.82926 -2.4353,2.01337 -4.1408,2.01337 -0.53748,0 -0.73269,-0.39568 -0.4338,-0.87929 z m 0.90922,-3.89274 c -0.88718,-0.56442 -0.88718,-1.2453 0,-2.85217 0.87823,-1.59066 1.65819,-1.91433 3.16538,-1.31356 1.8664,0.74394 1.84413,0.80188 -0.33333,0.86747 -1.42558,0.043 -2.15503,0.55659 -1.875,1.32029 0.25208,0.6875 0.96458,1.1375 1.58333,1 0.61875,-0.1375 1.125,0.2 1.125,0.75 0,1.16855 -1.99217,1.29245 -3.66538,0.22797 z m -8.31931,-3.41895 c 0.03,-2.56819 1.42242,-3.58053 3.73469,-2.71535 2.64716,0.99049 3.04291,3.16249 0.5,2.74415 -0.9625,-0.15835 -2.3125,0.0649 -3,0.49616 -0.76388,0.47913 -1.24404,0.27498 -1.23469,-0.52496 z m 9.98469,-4.30902 c 0,-0.825 0.375,-1.5 0.83333,-1.5 0.45834,0 0.83334,0.675 0.83334,1.5 0,0.825 -0.375,1.5 -0.83334,1.5 -0.45833,0 -0.83333,-0.675 -0.83333,-1.5 z m -6.75,-0.16228 c -1.54574,-0.62372 -1.56166,-1.4465 -0.0972,-5.02262 0.63407,-1.54831 1.31924,-3.68778 1.52261,-4.75438 0.48581,-2.54793 0.62369,-2.63171 2.3535,-1.43022 1.11317,0.77319 1.16694,1.14515 0.22104,1.52896 -1.85164,0.75133 -1.51526,3.13986 0.5,3.55034 1.29157,0.26307 0.89863,0.73916 -1.5,1.81743 -3.19276,1.43526 -4.22131,2.85136 -2.25,3.09777 0.55,0.0688 1.4125,0.18125 1.91667,0.25 0.50416,0.0688 1.25416,0.4625 1.66666,0.875 0.82515,0.82515 -2.34666,0.88936 -4.33333,0.0877 z m 8.25,-3.33772 c 2.74909,-1.18132 4.32797,-1.18132 2.5,0 -0.825,0.53316 -2.175,0.94464 -3,0.9144 -0.98906,-0.0362 -0.81874,-0.34772 0.5,-0.9144 z m -1.5,-3 c 0,-0.55 0.9,-1 2,-1 1.1,0 2,0.45 2,1 0,0.55 -0.9,1 -2,1 -1.1,0 -2,-0.45 -2,-1 z m 6.5,-1 c 0.33992,-0.55 0.81648,-1 1.05902,-1 0.24254,0 0.44098,0.45 0.44098,1 0,0.55 -0.47656,1 -1.05902,1 -0.58246,0 -0.7809,-0.45 -0.44098,-1 z m -2.75,-2.66228 c 0.6875,-0.27741 1.8125,-0.27741 2.5,0 0.6875,0.27741 0.125,0.50439 -1.25,0.50439 -1.375,0 -1.9375,-0.22698 -1.25,-0.50439 z m -1,-2 c 0.6875,-0.27741 1.8125,-0.27741 2.5,0 0.6875,0.27741 0.125,0.50439 -1.25,0.50439 -1.375,0 -1.9375,-0.22698 -1.25,-0.50439 z m -7.20729,-1.26862 c -0.73955,-1.1966 1.14162,-2.38223 2.4736,-1.55902 1.11836,0.69118 0.38417,2.48992 -1.01631,2.48992 -0.48508,0 -1.14086,-0.41891 -1.45729,-0.9309 z m 6.45729,-2.12812 c 0,-0.58246 0.45,-0.7809 1,-0.44098 0.55,0.33992 1,0.81648 1,1.05902 0,0.24254 -0.45,0.44098 -1,0.44098 -0.55,0 -1,-0.47656 -1,-1.05902 z m -4.53104,-0.9912 c -0.91846,-1.4861 -0.188,-2.0122 1.41676,-1.02041 0.85973,0.53135 0.96201,1.0467 0.29014,1.46194 -0.57071,0.35272 -1.33882,0.15403 -1.7069,-0.44153 z m 0.78104,-2.61206 c -1.74117,-0.70258 -1.56631,-2.33772 0.25,-2.33772 0.825,0 1.5,0.675 1.5,1.5 0,0.825 -0.1125,1.46447 -0.25,1.42105 -0.1375,-0.0434 -0.8125,-0.30592 -1.5,-0.58333 z m -0.25,-4.80634 c 0,-0.89459 0.58629,-1.24363 1.5,-0.89301 0.825,0.31659 1.5,0.97746 1.5,1.46862 0,0.49115 -0.675,0.89301 -1.5,0.89301 -0.825,0 -1.5,-0.66088 -1.5,-1.46862 z m 1.66667,-2.19805 c -0.36667,-0.36666 -0.66667,-1.70254 -0.66667,-2.96861 0,-1.63534 0.43438,-2.13526 1.5,-1.72635 0.825,0.31659 1.5,1.00402 1.5,1.52764 0,0.52361 -0.49821,0.64411 -1.10713,0.26778 -0.74503,-0.46045 -0.88652,0.0108 -0.43262,1.44098 0.68523,2.15895 0.41094,2.66308 -0.79358,1.45856 z m 0.054,-8.37299 c 0.56637,-2.16578 1.52771,-1.87603 1.88651,0.5686 0.11874,0.80908 -0.37715,1.47106 -1.10199,1.47106 -0.83411,0 -1.1221,-0.74874 -0.78452,-2.03966 z m 0.27933,-3.96034 c 0,-0.55 0.42344,-1 0.94098,-1 0.51754,0 1.2191,0.45 1.55902,1 0.33992,0.55 -0.0835,1 -0.94098,1 -0.85746,0 -1.55902,-0.45 -1.55902,-1 z m 1,-3 c 0,-0.55 0.47656,-1 1.05902,-1 0.58246,0 0.7809,0.45 0.44098,1 -0.33992,0.55 -0.81648,1 -1.05902,1 -0.24254,0 -0.44098,-0.45 -0.44098,-1 z m 0,-4 c 0,-1.1 0.49814,-2 1.10699,-2 0.60884,0 0.85912,0.64593 0.55618,1.43539 -0.30295,0.78947 -0.0136,1.65394 0.64301,1.92105 0.6566,0.26712 0.40632,0.52119 -0.55618,0.56461 -1.10965,0.0501 -1.75,-0.65288 -1.75,-1.92105 z m 1.5,-4 c -0.33992,-0.55 -0.14148,-1 0.44098,-1 0.58246,0 1.05902,0.45 1.05902,1 0,0.55 -0.19844,1 -0.44098,1 -0.24254,0 -0.7191,-0.45 -1.05902,-1 z m -0.37483,-8.02778 c -0.0795,-3.51854 0.25367,-5.85612 0.78769,-5.52607 0.99925,0.61756 0.96529,10.00904 -0.0398,11.01415 -0.33551,0.33551 -0.67204,-2.13413 -0.74786,-5.48808 z m -0.12517,-9.9132 c 0,-0.51754 0.44485,-1.21592 0.98855,-1.55194 0.56686,-0.35034 0.7345,0.0511 0.39301,0.94098 -0.66479,1.73242 -1.38156,2.04939 -1.38156,0.61096 z m -344,-7.05902 c 0,-0.55 0.42344,-1 0.94098,-1 0.51754,0 1.2191,0.45 1.55902,1 0.33992,0.55 -0.0835,1 -0.94098,1 -0.85746,0 -1.55902,-0.45 -1.55902,-1 z m -0.80833,-6.075 c 0.19708,-0.59125 0.78583,-1.075 1.30833,-1.075 0.5225,0 1.11125,0.48375 1.30833,1.075 0.19709,0.59125 -0.39166,1.075 -1.30833,1.075 -0.91667,0 -1.50542,-0.48375 -1.30833,-1.075 z m -5.19167,-1.01348 c 0,-0.50134 0.975,-0.91152 2.16667,-0.91152 1.19166,0 1.85364,0.31302 1.47105,0.69561 -1.08081,1.08081 -3.63772,1.23257 -3.63772,0.21591 z m 2,-2.79349 c 0,-0.55 0.45,-1.27811 1,-1.61803 0.55,-0.33992 1,-0.16803 1,0.38197 0,0.55 -0.45,1.27811 -1,1.61803 -0.55,0.33992 -1,0.16803 -1,-0.38197 z m 346,-2.61803 c 0,-0.825 0.17686,-1.5 0.39301,-1.5 0.21616,0 0.65203,0.675 0.96862,1.5 0.31658,0.825 0.13972,1.5 -0.39301,1.5 -0.53274,0 -0.96862,-0.675 -0.96862,-1.5 z m -349.80137,-8.75 c -3.91289,-11.26348 -5.1711,-18.82961 -5.11356,-30.75 0.0664,-13.75918 1.24508,-18.49068 2.36908,-9.51015 0.84482,6.74983 4.85024,21.26432 7.03288,25.48508 1.10059,2.1283 1.20048,3.5842 0.4224,6.15629 -0.5605,1.85283 -1.29245,4.26878 -1.62656,5.36878 -0.3341,1.1 -0.57938,3.6875 -0.54507,5.75 0.0343,2.0625 -0.0344,3.75 -0.15278,3.75 -0.11833,0 -1.19221,-2.8125 -2.38639,-6.25 z m 10.30137,5.25 c -0.33992,-0.55 0.0835,-1 0.94098,-1 0.85746,0 1.55902,0.45 1.55902,1 0,0.55 -0.42344,1 -0.94098,1 -0.51754,0 -1.2191,-0.45 -1.55902,-1 z m 339.12494,-0.10687 c -0.23218,-0.76622 -1.1433,-4.5051 -2.02472,-8.30862 -1.68188,-7.25769 -1.45655,-10.5823 0.26674,-3.93545 0.54912,2.11802 1.50827,5.80886 2.13145,8.20188 0.62317,2.39302 0.88906,4.59493 0.59085,4.89313 -0.2982,0.2982 -0.73215,-0.0847 -0.96432,-0.85094 z m -335.20712,-5.03382 -2.91782,-2.00084 3.25,0.65022 c 2.36019,0.4722 3.25374,0.28623 3.26365,-0.67923 0.008,-0.73121 0.285,-2.34196 0.61664,-3.57946 0.37501,-1.39937 0.15851,-2.25 -0.57268,-2.25 -0.6466,0 -0.89753,0.45 -0.55761,1 0.33992,0.55 0.14148,1 -0.44098,1 -0.58246,0 -1.05902,-0.72748 -1.05902,-1.61663 0,-1.08329 0.61315,-1.45629 1.85855,-1.13061 1.51084,0.39509 2.1757,-0.52012 3.55377,-4.89185 0.93238,-2.95783 1.3765,-5.89359 0.98695,-6.5239 -0.43696,-0.70702 -0.26603,-0.8727 0.44622,-0.4325 0.67346,0.41622 1.15451,0.0986 1.15451,-0.76216 0,-0.81163 -0.5625,-1.70266 -1.25,-1.98007 -0.75654,-0.30527 -0.56929,-0.53555 0.47432,-0.58333 2.28662,-0.10469 5.26233,-5.78765 3.8939,-7.4365 -0.72882,-0.87818 -0.49069,-1.21388 0.86106,-1.21388 1.77112,0 1.78592,0.18426 0.28393,3.53572 -0.87152,1.94464 -3.68675,9.69174 -6.25607,17.21578 l -4.67151,13.68008 z m -0.41782,-3.85931 c -1.29269,-0.8354 -1.26629,-0.97149 0.19098,-0.98469 0.93004,-0.008 1.9691,0.43469 2.30902,0.98469 0.78218,1.2656 -0.54163,1.2656 -2.5,0 z m 331.07895,-9.58333 c 0.048,-1.16495 0.28494,-1.4019 0.60416,-0.60417 0.28887,0.72187 0.25335,1.58438 -0.0789,1.91667 -0.33229,0.33229 -0.56864,-0.25834 -0.52522,-1.3125 z M 342.21142,413.88014 c 0,-1.08107 5.34472,-9.99966 6.21293,-10.36735 0.43289,-0.18334 0.78707,-0.97084 0.78707,-1.75 0,-0.77917 0.45,-1.41667 1,-1.41667 0.55,0 1,-0.50972 1,-1.1327 0,-0.62299 0.95332,-1.95952 2.11848,-2.97006 1.16516,-1.01054 1.88961,-2.43378 1.60987,-3.16276 -0.30747,-0.80126 0.2688,-1.38398 1.45715,-1.4735 1.8446,-0.13895 1.8162,0.0487 -0.4609,3.04547 -1.33467,1.75645 -4.9687,6.95373 -8.07563,11.5495 -3.10694,4.59577 -5.64897,8.0509 -5.64897,7.67807 z m -13.85794,-10.03402 c 0.12736,-1.1 -0.11052,-5.4301 -0.52861,-9.62244 -0.72603,-7.28003 0.76639,-23.37197 2.25353,-24.29852 0.34816,-0.21692 0.48908,3.86314 0.31314,9.0668 -0.30483,9.01616 0.7699,19.6309 2.40748,23.77777 0.62571,1.58452 0.43463,1.7989 -1.08404,1.21613 -1.10195,-0.42286 -2.19556,-0.19097 -2.71836,0.57639 -0.62041,0.91063 -0.80738,0.70245 -0.64314,-0.71613 z m 31.85794,-17.31464 c 0,-1.84067 22.19801,-22.82523 31.37824,-29.66296 13.17897,-9.81612 30.50694,-19.54077 41.86031,-23.49246 5.0938,-1.77297 10.16145,-3.60727 11.26145,-4.07623 2.95181,-1.25844 15.98433,-4.57799 24,-6.11311 13.97965,-2.67731 52.17835,-1.03976 56,2.40068 0.60807,0.54741 0.0202,0.68529 -1.5,0.3518 -1.375,-0.30164 -8.57606,-1.02874 -16.00235,-1.61577 -40.63578,-3.21217 -79.7957,7.92236 -112.49765,31.987 -9.46636,6.96608 -20.83654,17.18715 -27.5,24.72075 -5.24158,5.92605 -7,7.30774 -7,5.5003 z m 58,-65.08495 c 0,-1.81763 7.8992,-11.33973 13.1228,-15.81889 5.89247,-5.05272 14.80393,-10.96939 24.89555,-16.52916 4.92219,-2.71178 6.94237,-3.35385 8.25,-2.62206 2.76085,1.54505 1.99927,4.1802 -1.9474,6.73815 -2.00987,1.30265 -10.51097,7.71515 -18.89134,14.25 -13.07001,10.19175 -15.75297,11.88155 -18.86471,11.88155 -2.3021,0 -3.838,0.54811 -4.20327,1.5 -0.62339,1.62452 -2.36163,2.06644 -2.36163,0.60041 z m 49.24852,-14.46263 -5.25148,-1.13778 12.75148,-7.20701 c 13.17979,-7.44908 37.21446,-19.29299 39.15099,-19.29299 0.61646,0 1.10049,1.75191 1.10049,3.98315 0,3.80441 -0.23559,4.10119 -5.25,6.61339 -2.8875,1.44662 -11.58831,6.1792 -19.33512,10.51684 -7.74682,4.33764 -14.94682,7.83612 -16,7.7744 -1.05319,-0.0617 -4.27805,-0.62422 -7.16636,-1.25 z m 218.94654,365.12828 1.6959,-4.56755 -7.69548,-0.60688 c -4.23251,-0.33378 -16.19498,-1.09218 -26.58326,-1.68533 -15.55652,-0.88824 -19.03716,-0.84281 -19.73469,0.25762 -1.24122,1.95815 -1.06011,3.83314 0.37247,3.85619 0.6875,0.0111 4.175,0.49248 7.75,1.06984 3.575,0.57735 7.85,1.21612 9.5,1.41948 1.65,0.20336 6.375,1.0848 10.5,1.95875 8.06122,1.7079 19.86962,3.39155 21.49958,3.06543 0.54977,-0.11 1.76274,-2.2554 2.69548,-4.76755 z m -18.44506,-1.42834 c 0.6875,-0.27741 1.8125,-0.27741 2.5,0 0.6875,0.27741 0.125,0.50439 -1.25,0.50439 -1.375,0 -1.9375,-0.22698 -1.25,-0.50439 z m -303.75,-4.41854 c 1.15752,-0.81041 0.9292,-0.91017 -1,-0.43694 -2.18189,0.53522 -2.26695,0.46781 -0.66848,-0.5298 1.00734,-0.62869 2.6426,-0.93096 3.63391,-0.67173 1.78392,0.46651 5.62054,-2.81693 4.24512,-3.63305 -1.18892,-0.70545 -36.31476,-7.87678 -36.69903,-7.49251 -0.19713,0.19712 -0.0438,1.89671 0.34074,3.77686 0.50335,2.46109 1.39209,3.62134 3.17344,4.14289 3.70275,1.0841 17.04241,4.11108 20.47112,4.64522 1.65175,0.25732 3.19068,0.65056 3.41985,0.87387 0.65357,0.63686 1.46283,0.45975 3.08333,-0.67481 z m 360.55692,-26.34761 c 0.26914,-8.83937 0.69492,-18.96876 0.94616,-22.50978 l 0.45682,-6.43821 -2.72995,3.1088 c -8.79045,10.01033 -25.03492,17.76937 -45.53495,21.7494 -4.50725,0.87508 -9.2075,1.80823 -10.445,2.07369 -1.63988,0.35176 -2.25,1.19501 -2.25,3.10971 v 2.62707 L 677.79,642.93949 c 12.90016,-0.71674 25.66833,-1.98626 32.08639,-3.1903 l 3.62356,-0.67978 -0.49477,6.91513 -0.49478,6.91512 5.07295,3.73806 c 4.98947,3.67655 5.0863,3.70197 5.88429,1.5448 0.44624,-1.2063 1.03155,-9.42547 1.3007,-18.26483 z m -404.02031,15.5951 c -0.45966,-2.0928 -0.24398,-2.83334 0.8252,-2.83334 0.79613,0 1.22776,0.57267 0.95917,1.2726 -0.26859,0.69993 -1.8e-4,2.08743 0.59646,3.08333 0.83154,1.38799 0.95295,0.5449 0.52003,-3.61109 -0.31062,-2.98201 -1.21113,-6.34464 -2.00112,-7.47251 -0.78999,-1.12787 -1.43635,-2.85054 -1.43635,-3.82817 0,-0.97762 -0.40787,-1.77749 -0.90638,-1.77749 -0.49851,0 -0.65262,-0.97037 -0.34248,-2.15637 0.43204,-1.65212 0.23477,-1.96858 -0.84362,-1.3533 -0.9897,0.56469 -1.11009,0.47694 -0.40556,-0.29558 0.72308,-0.79288 4.4629,-0.42183 13.43683,1.33313 6.83918,1.33749 12.50348,2.32837 12.58734,2.20196 0.0839,-0.12641 -0.0398,-2.06142 -0.27472,-4.30002 l -0.42718,-4.07019 -10.94732,-1.74547 c -6.02102,-0.96002 -13.29336,-2.35404 -16.16076,-3.09783 -2.8674,-0.7438 -5.30871,-1.2571 -5.42514,-1.14067 -0.645,0.645 1.08009,4.51302 1.81123,4.06115 0.48117,-0.29737 0.63002,0.0973 0.33078,0.87715 -1.03007,2.68432 6.43773,27.68604 8.26958,27.68604 0.25097,0 0.17627,-1.275 -0.16599,-2.83333 z m 318.57351,-4.67532 c 0.36439,-2.19524 1.18592,-7.14135 1.82563,-10.99135 l 1.1631,-7 4.15655,-0.28931 c 2.28611,-0.15912 4.32703,-0.45979 4.5354,-0.66815 0.20836,-0.20836 0.0498,-6.58777 -0.35236,-14.17646 l -0.7312,-13.79763 -3.60362,4.03048 c -1.98199,2.21676 -4.76915,4.75208 -6.19369,5.63403 -2.55342,1.58088 -2.5991,1.82047 -3.22873,16.9353 -0.35126,8.43246 -0.9407,17.51523 -1.30986,20.18394 -0.60703,4.38829 -0.49206,4.8177 1.20253,4.49135 1.30975,-0.25224 2.07315,-1.56222 2.53625,-4.3522 z m -335.09973,0.25865 c -0.42845,-1.7875 -2.20712,-9.1 -3.9526,-16.25 -1.74548,-7.15 -3.48846,-14.35 -3.8733,-16 -0.53369,-2.28827 -1.83449,-3.56364 -5.48296,-5.37579 -2.6308,-1.30669 -4.95338,-2.2057 -5.16128,-1.99779 -0.2079,0.2079 0.90303,4.36152 2.46873,9.23027 1.5657,4.86875 3.37981,12.06776 4.03135,15.99779 1.13488,6.84551 1.42132,7.36493 6.82214,12.37126 3.10064,2.87415 5.70264,5.23665 5.78222,5.25 0.0796,0.0133 -0.20586,-1.43824 -0.6343,-3.22574 z m 311.37117,-7.30194 c 0.34149,-0.88992 0.17385,-1.29132 -0.39301,-0.94098 -0.5437,0.33602 -0.98855,1.0344 -0.98855,1.55194 0,1.43843 0.71677,1.12146 1.38156,-0.61096 z M 745.09512,621.0948 c 1.31104,-2.88677 3.968,-9.07294 5.90435,-13.74703 4.04548,-9.76525 4.309,-6.72778 -3.05196,-35.17919 l -4.31481,-16.67755 -4.89756,5.92685 c -2.69366,3.25977 -8.16466,8.86249 -12.15777,12.45049 -7.78272,6.99315 -28.316,22.00973 -31.45996,23.00759 -1.25679,0.39889 -1.90077,1.51867 -1.89068,3.28755 0.0295,5.17449 1.196,5.61231 7.09718,2.66391 8.47469,-4.23421 28.94039,-17.58672 28.37004,-18.50957 -0.28334,-0.45844 0.0117,-1.15916 0.65567,-1.55714 0.73122,-0.45192 0.90292,-0.29014 0.45729,0.4309 -1.08186,1.75049 0.47513,1.37599 4.97205,-1.19592 l 4.06755,-2.32634 1.19074,12.08839 c 0.65491,6.64861 1.18702,17.15088 1.18246,23.33838 -0.005,6.1875 0.32921,11.24941 0.74171,11.24868 0.4125,-7.2e-4 1.82267,-2.36322 3.1337,-5.25 z m -8.81341,-42.43966 c 0.0387,-0.44496 0.45702,-1.70902 0.92971,-2.80902 0.82859,-1.92824 0.86195,-1.92138 0.92971,0.19098 0.0387,1.20504 -0.37971,2.4691 -0.92971,2.80902 -0.55,0.33992 -0.96837,0.25398 -0.92971,-0.19098 z m -415.64445,33.71682 c -0.53579,-0.53579 -2.76329,-1.62908 -4.95,-2.42954 -2.18671,-0.80046 -3.39889,-1.48708 -2.69372,-1.52584 0.70516,-0.0388 2.90523,0.60772 4.88903,1.4366 2.75864,1.15264 3.93481,1.23493 5.00118,0.34992 0.76685,-0.63643 1.25538,-1.57384 1.08562,-2.08313 -0.16976,-0.50929 -4.79725,-2.64186 -10.28331,-4.73903 -5.48605,-2.09718 -14.01488,-5.63521 -18.95295,-7.86229 -4.93808,-2.22708 -9.14166,-3.88589 -9.34131,-3.68624 -2.38628,2.38627 8.09906,9.69413 20.19164,14.07274 3.2824,1.18853 5.32899,2.37397 4.54799,2.6343 -0.78101,0.26034 1.27999,1.41281 4.57999,2.56106 7.20419,2.50672 7.14934,2.49495 5.92584,1.27145 z m 329.07416,-25.02584 c 0.33992,-0.55 0.14148,-1 -0.44098,-1 -0.58246,0 -1.05902,0.45 -1.05902,1 0,0.55 0.19844,1 0.44098,1 0.24254,0 0.7191,-0.45 1.05902,-1 z m -341.5,-2.46482 c 0,-0.80565 0.96445,-1.98097 2.14321,-2.61182 2.04036,-1.09197 1.90838,-1.29291 -2.75,-4.18698 -7.33389,-4.55627 -19.42531,-14.02644 -23.47163,-18.38332 -1.96813,-2.11918 -3.65301,-4.97806 -3.74419,-6.35306 -0.0912,-1.375 -0.573,-4.975 -1.07073,-8 -0.49773,-3.025 -0.75173,-5.66112 -0.56444,-5.85804 0.1873,-0.19693 4.45134,3.62807 9.47567,8.5 5.02432,4.87192 9.497,8.99014 9.93928,9.15159 0.44228,0.16146 1.09143,-0.85104 1.44254,-2.25 0.35112,-1.39895 1.34232,-2.54355 2.20268,-2.54355 2.43997,0 1.52506,-1.10249 -8.10239,-9.76356 -4.95,-4.45313 -12.6,-12.20229 -17,-17.22036 -5.38249,-6.13857 -8.10972,-8.59493 -8.33535,-7.50746 -0.18445,0.88897 0.15305,6.10585 0.75,11.59307 0.59694,5.48721 1.09149,13.6716 1.099,18.18753 0.008,4.51593 0.26622,9.15147 0.57491,10.3012 0.30868,1.14974 4.20027,4.96252 8.64796,8.47286 9.12051,7.19835 26.87305,19.79754 28.01348,19.8815 0.4125,0.0304 0.75,-0.60395 0.75,-1.4096 z m 341.5,-1.53518 c 0.33992,-0.55 0.14148,-1 -0.44098,-1 -0.58246,0 -1.05902,0.45 -1.05902,1 0,0.55 0.19844,1 0.44098,1 0.24254,0 0.7191,-0.45 1.05902,-1 z m -3.5,-3 c 0,-0.55 -0.19844,-1 -0.44098,-1 -0.24254,0 -0.7191,0.45 -1.05902,1 -0.33992,0.55 -0.14148,1 0.44098,1 0.58246,0 1.05902,-0.45 1.05902,-1 z m 5.5,-2 c 0.33992,-0.55 0.14148,-1 -0.44098,-1 -0.58246,0 -1.05902,0.45 -1.05902,1 0,0.55 0.19844,1 0.44098,1 0.24254,0 0.7191,-0.45 1.05902,-1 z m 3.5,-1 c 0,-0.55 -0.45,-1 -1,-1 -0.55,0 -1,0.45 -1,1 0,0.55 0.45,1 1,1 0.55,0 1,-0.45 1,-1 z m -11,-2.44098 c 0,-0.24254 -0.45,-0.7191 -1,-1.05902 -0.55,-0.33992 -1,-0.14148 -1,0.44098 0,0.58246 0.45,1.05902 1,1.05902 0.55,0 1,-0.19844 1,-0.44098 z m 11,-0.55902 c 0,-0.55 -0.45,-1 -1,-1 -0.55,0 -1,0.45 -1,1 0,0.55 0.45,1 1,1 0.55,0 1,-0.45 1,-1 z m -8,-2.99457 c -1.78709,-1.16138 -5.32283,-1.3368 -4.63888,-0.23015 0.26353,0.42641 1.75259,0.87196 3.30901,0.99012 2.15488,0.16359 2.47208,-0.0177 1.32987,-0.75997 z m -1,-3.00543 c 0,-0.55 -0.47656,-1 -1.05902,-1 -0.58246,0 -0.7809,0.45 -0.44098,1 0.33992,0.55 0.81648,1 1.05902,1 0.24254,0 0.44098,-0.45 0.44098,-1 z m 6,0.61663 c 0,-0.88773 -4.04569,-1.35173 -4.55802,-0.52275 -0.30801,0.49837 0.59154,0.90612 1.999,0.90612 1.40746,0 2.55902,-0.17252 2.55902,-0.38337 z m 108.96279,-4.36663 c 0.58123,-2.0625 2.19158,-9.4307 3.57854,-16.37377 l 2.52175,-12.62377 -9.39489,-16.87623 c -5.16718,-9.28193 -10.28812,-18.63091 -11.37984,-20.77552 l -1.98496,-3.89929 -0.53,3.95144 c -1.37309,10.23715 -15.61618,33.91909 -28.17479,46.84612 l -7.77101,7.99899 2.69407,5.49309 2.69406,5.4931 5.64214,-6.00825 c 10.02179,-10.6721 17.84111,-20.88635 23.22968,-30.34454 4.07884,-7.15931 5.46762,-8.89074 6.15134,-7.669 0.4857,0.86789 0.60117,2.58141 0.2566,3.80781 -0.40755,1.45056 -0.31474,1.78306 0.26557,0.95144 0.66283,-0.94987 1.1936,-0.61657 2.06551,1.29706 1.53572,3.37055 1.48065,3.98117 -0.23097,2.56065 -1.17997,-0.97929 -1.27587,-0.63928 -0.60006,2.12756 0.4424,1.81121 1.97855,8.24311 3.41366,14.29311 3.41616,14.40143 5.81362,23.5 6.19223,23.5 0.16751,0 0.78013,-1.6875 1.36137,-3.75 z m -7.33925,-29.78866 c -0.96498,-2.51469 -0.68031,-3.16355 0.49853,-1.13634 0.58369,1.00375 0.8506,2.03566 0.59313,2.29313 -0.25747,0.25747 -0.74872,-0.26309 -1.09166,-1.15679 z m 12.26478,-46.46134 0.0635,-10.5 -7.22395,-9 c -7.62938,-9.50511 -22.50819,-25.5 -23.72068,-25.5 -0.39443,0 -0.98682,3.0375 -1.31643,6.75 -1.07862,12.14898 -7.92181,29.41702 -15.87363,40.05539 l -3.9656,5.3054 3.78764,5.84975 3.78763,5.84974 3.82464,-6.15514 c 5.47528,-8.81152 10.54565,-19.70946 14.26262,-30.65514 l 3.22604,-9.5 5.87995,12.04456 c 3.23397,6.6245 8.12995,17.30588 10.87995,23.73638 l 5,11.69183 0.66239,-4.73639 c 0.36432,-2.60501 0.69099,-9.46138 0.72593,-15.23638 z m -452.38832,12 c 0.33992,-0.55 0.14148,-1 -0.44098,-1 -0.58246,0 -1.05902,0.45 -1.05902,1 0,0.55 0.19844,1 0.44098,1 0.24254,0 0.7191,-0.45 1.05902,-1 z m -5.5534,-6.35622 c -0.96285,-0.88745 -1.09592,-0.73326 -0.59378,0.68801 0.35595,1.00748 0.69938,2.35748 0.76318,3 0.0638,0.64251 0.331,0.33291 0.59378,-0.68801 0.26278,-1.02092 -0.0807,-2.37092 -0.76318,-3 z m 5.69626,2.85622 c 0.825,-0.825 1.07295,-1.5 0.55101,-1.5 -0.52194,0 -1.50918,0.675 -2.19387,1.5 -0.68469,0.825 -0.93265,1.5 -0.55102,1.5 0.38163,0 1.36888,-0.675 2.19388,-1.5 z m 3.35714,-5.5 c 0,-0.55 -0.19844,-1 -0.44098,-1 -0.24254,0 -0.7191,0.45 -1.05902,1 -0.33992,0.55 -0.14148,1 0.44098,1 0.58246,0 1.05902,-0.45 1.05902,-1 z M 720.71224,423.473 c 2.49847,-19.71847 2.24664,-19.23042 6.82497,-13.22692 2.08929,2.73966 4.94268,7.94131 6.34087,11.55922 1.99619,5.16532 3.53985,7.36743 7.18775,10.25372 2.55507,2.02163 6.33309,5.25459 8.39559,7.18435 3.68698,3.44968 3.74949,3.46742 3.71979,1.0557 -0.0166,-1.34912 -0.83961,-6.59267 -1.82888,-11.65233 l -1.79866,-9.19939 -11.80284,-12.5803 c -8.86413,-9.44802 -13.80735,-13.8139 -19.85361,-17.5348 -4.42793,-2.72497 -8.23011,-4.77515 -8.44931,-4.55596 -0.21919,0.2192 0.14221,1.40892 0.80311,2.64382 2.98031,5.56876 2.19508,26.39845 -1.78261,47.28708 l -1.68736,8.86107 4.46519,3.82078 4.46518,3.82078 1.6371,-7.05497 c 0.9004,-3.88023 2.41408,-13.18706 3.36372,-20.68185 z m -25.42279,-49.92234 c -0.4459,-6.4375 -0.64512,-11.89279 -0.44272,-12.12287 0.20241,-0.23008 2.27976,0.95283 4.61635,2.62869 4.03275,2.89238 23.07293,12.28964 24.90057,12.28964 0.47304,0 -3.61174,-4.62474 -9.0773,-10.27721 l -9.93738,-10.27721 -11.31877,-2.74115 c -6.22533,-1.50763 -11.59036,-2.73289 -11.92229,-2.72279 -0.33194,0.0101 -0.0532,2.15586 0.6195,4.76836 0.67266,2.6125 1.5145,8.8 1.87076,13.75 1.69669,23.57423 1.3621,22.14178 5.96345,25.53078 l 4.1498,3.05641 0.69437,-6.08905 c 0.38191,-3.34898 0.32955,-11.3561 -0.11634,-17.7936 z m -0.078,-33.22515 c 0,-2.72137 -20.12866,-13.18406 -21.91929,-11.39344 -0.29406,0.29407 0.57998,2.64502 1.94232,5.22436 l 2.47697,4.68969 7.5,1.12052 c 10.16912,1.5193 10,1.51323 10,0.35887 z m -10.1875,-2.6625 c 0.72187,-0.28887 1.58438,-0.25335 1.91667,0.0789 0.33229,0.33229 -0.25834,0.56864 -1.3125,0.52522 -1.16495,-0.048 -1.4019,-0.28494 -0.60417,-0.60416 z m -4,-1 c 0.72187,-0.28887 1.58438,-0.25335 1.91667,0.0789 0.33229,0.33229 -0.25834,0.56864 -1.3125,0.52522 -1.16495,-0.048 -1.4019,-0.28494 -0.60417,-0.60416 z m -82.15888,-50.31689 c 3.79053,0 4.50004,-1.49124 1.09638,-2.30436 -1.2375,-0.29564 -6.17934,-2.16938 -10.98187,-4.16387 -9.34766,-3.88209 -9.15183,-3.87459 -24.01813,-0.9195 -3.03951,0.60419 -3.75972,2.35932 -1,2.43697 0.9625,0.0271 4.45,1.37072 7.75,2.98586 5.61137,2.7464 6.5767,2.90514 14.90362,2.45076 4.897,-0.26722 10.4095,-0.48586 12.25,-0.48586 z M 307.37888,783.27227 c -7.07633,-6.88152 -18.19595,-20.01197 -26.75425,-31.5924 -3.18417,-4.30856 -10.09225,-12.81817 -15.3513,-18.91024 -13.63006,-15.78904 -20.33763,-24.12495 -24.46218,-30.40071 -1.97985,-3.01245 -3.59973,-5.14778 -3.59973,-4.74518 0,1.35909 8.23007,23.18937 10.26291,27.22238 7.1037,14.0933 22.05078,31.92696 37.63998,44.90904 8.49369,7.07322 26.0797,19.57237 27.55373,19.58364 0.52615,0.004 -1.85398,-2.72591 -5.28916,-6.06653 z m 433.09432,-9.18515 c 6.56074,-4.80067 19.79218,-18.18762 21.98265,-22.241 1.02297,-1.89298 -12.47278,10.10044 -25.69049,22.83066 -6.89554,6.64122 -5.97377,6.49463 3.70784,-0.58966 z m 53.71701,-60.23003 c 5.31585,-2.74893 5.87293,-10.46372 1.0659,-14.76097 -7.9337,-7.09231 -19.11131,0.98532 -14.57927,10.53588 2.58082,5.43868 7.93145,7.11161 13.51337,4.22509 z M 230.1938,663.80684 c -4.86465,-10.84238 -14.47807,-40.60575 -18.90122,-58.51865 -12.53144,-50.74978 -14.12022,-91.89498 -5.65472,-146.44207 0.50327,-3.24278 0.0421,-2.58022 -2.43622,3.5 -18.92157,46.42185 -21.4921,78.52141 -9.90914,123.74084 3.80531,14.85577 8.63484,27.68696 16.91478,44.93954 7.65937,15.95951 21.79706,40.69035 22.77689,39.84326 0.15001,-0.12969 -1.10566,-3.30801 -2.79037,-7.06292 z m 580.43204,-12.46072 c 15.76427,-23.59103 25.65234,-43.99838 31.11306,-64.21225 2.61624,-9.68452 6.87323,-33.58802 7.97627,-44.78775 0.35209,-3.575 0.88336,-7.4 1.1806,-8.5 1.03705,-3.83781 -1.26793,-0.0426 -3.64399,6 -3.26178,8.29505 -12.46728,26.63015 -17.03687,33.93328 -3.19037,5.09885 -4.05376,7.72059 -5.41186,16.43335 -3.5302,22.64778 -12.10328,49.73136 -22.0435,69.63856 -5.20453,10.42309 -3.68252,8.77746 7.86629,-8.50519 z m 34.2285,-179.63484 c 4.56023,-2.16397 6.71965,-6.45606 6.08427,-12.09314 -1.1834,-10.49912 -12.8332,-14.15847 -19.97719,-6.27509 -4.96332,5.47701 -3.15792,15.07463 3.44809,18.33026 4.18881,2.06436 6.15943,2.07152 10.44483,0.038 z m -13.69242,-62.83956 c 6.59297,-3.40936 10.60989,-14.26755 8.09605,-21.88455 -1.55054,-4.69819 -8.20061,-10.34837 -13.44122,-11.42024 -13.4049,-2.74171 -25.06653,8.92527 -21.64011,21.65004 3.10797,11.5421 16.23749,17.21265 26.98528,11.65475 z M 196.57656,371.27354 c 5.6964,-4.48078 1.94172,-14.92742 -5.36514,-14.92742 -4.35512,0 -8,3.87268 -8,8.5 0,7.23313 7.65857,10.91621 13.36514,6.42742 z m 614.92761,-28.94306 c 8.17075,-6.42711 3.7561,-19.78027 -6.66907,-20.17219 -10.11867,-0.3804 -15.22287,13.14008 -7.43461,19.69347 3.79851,3.19624 10.36554,3.41914 14.10368,0.47872 z m -18.29478,-60.48331 c 9.8268,-5.08163 11.99675,-19.22178 4.20543,-27.40404 -8.68993,-9.12596 -22.27071,-7.23049 -28.02224,3.91106 -4.20853,8.15252 -1.21247,18.2563 6.79016,22.89889 4.27349,2.47919 12.80558,2.77689 17.02665,0.59409 z m -53.19831,-29.90604 c 5.33652,-2.77658 7.54506,-6.19868 7.97602,-12.35871 0.33425,-4.7776 0.01,-6.31221 -1.94058,-9.18223 -3.25162,-4.78453 -8.08784,-7.38214 -13.58921,-7.29897 -11.21206,0.1695 -17.83243,12.80288 -11.87056,22.6521 4.05933,6.70616 12.9715,9.54522 19.42433,6.18781 z M 345.89697,220.17181 c 2.86286,-2.68952 3.12525,-8.60283 0.52427,-11.81491 -2.67157,-3.29924 -8.90484,-3.06666 -11.92543,0.44498 -6.70513,7.79518 3.92357,18.39476 11.40116,11.36993 z m -42.51429,-1.48068 c 2.26919,-2.05358 2.3248,-4.13939 0.17375,-6.51627 -3.10027,-3.42577 -8.34501,-1.19923 -8.34501,3.54269 0,4.45379 4.66129,6.15006 8.17126,2.97358 z m 376.64677,-25.37542 c 4.38717,-2.67477 7.52631,-9.61719 6.59449,-14.58418 -0.90654,-4.83231 -5.69712,-10.09079 -10.50526,-11.53134 -5.34966,-1.6028 -10.80367,0.12498 -14.81452,4.69308 -2.58558,2.94482 -3.09274,4.35235 -3.09274,8.58335 0,6.13447 2.05371,9.92503 6.90021,12.73582 4.59979,2.6677 10.643,2.70954 14.91782,0.10327 z m -292.14652,-2.36346 c 2.22471,-1.91361 2.78304,-3.23892 2.78304,-6.60613 0,-11.00485 -15.97392,-12.23865 -18.05176,-1.39429 -0.48688,2.54103 -0.0133,3.7683 2.60466,6.75 3.93749,4.48455 8.39274,4.92445 12.66406,1.25042 z m 213.57849,-25.56016 c 7.03853,-7.87681 -0.24233,-20.5832 -10.67305,-18.62638 -9.53571,1.78891 -11.74246,15.37259 -3.35188,20.63247 4.6375,2.90715 10.36687,2.08763 14.02493,-2.00609 z"
       id="path1"
       clip-path="url(#clipPath3)"
       transform="translate(3.8755255,-16.793944)"
       inkscape:export-filename="path1.svg"
       inkscape:export-xdpi="96"
       inkscape:export-ydpi="96" />
  </g>
</svg>
